<svg xmlns="http://www.w3.org/2000/svg" xmlns:xlink="http://www.w3.org/1999/xlink" width="49.934" height="49.934" viewBox="0 0 49.934 49.934"><defs><clipPath id="a"><path d="M864.456,148.136h2.031a1.384,1.384,0,0,0,1.371-1.2l.688-5.009a1.1,1.1,0,0,0-.829-1.215l-5.875-1.419a.657.657,0,0,1-.373-.248l-3.421-4.63A2.543,2.543,0,0,0,856,133.383H845.9a2.94,2.94,0,0,0-2.024.808l-5.485,5.21a2.21,2.21,0,0,0-.685,1.708c.07,1.446.2,4.1.274,5.7a1.384,1.384,0,0,0,1.382,1.318h.8a4.756,4.756,0,0,1-.067-.793h0a4.757,4.757,0,0,1,4.757-4.757h0a4.757,4.757,0,0,1,4.757,4.757h0a4.743,4.743,0,0,1-.067.793h5.532a4.768,4.768,0,0,1-.066-.793h0a4.757,4.757,0,0,1,4.757-4.757h0a4.757,4.757,0,0,1,4.757,4.757h0a4.719,4.719,0,0,1-.063.8Z" transform="translate(-837.7 -133.383)" fill="none"/></clipPath></defs><g transform="translate(0 49.934) rotate(-90)" fill="#fff" stroke="#76b740" stroke-width="4"><circle cx="24.967" cy="24.967" r="24.967" stroke="none"/><circle cx="24.967" cy="24.967" r="22.967" fill="none"/></g><g transform="translate(8.657 15.749)"><rect width="7.047" height="7.047" rx="3.523" transform="translate(18.537 10.436)" fill="#76b740"/><g transform="translate(0 0)"><g clip-path="url(#a)"><line x2="1.805" transform="translate(13.776 11.539)" fill="none" stroke="#76b740" stroke-linejoin="round" stroke-width="1.5"/><path d="M0,0H2.439" transform="translate(28.069 11.539)" fill="none" stroke="#76b740" stroke-width="1.5"/><line x2="1.805" transform="translate(0.202 11.539)" fill="none" stroke="#76b740" stroke-linejoin="round" stroke-width="1.5"/></g></g><path d="M864.456,148.136h2.031a1.384,1.384,0,0,0,1.371-1.2l.688-5.009a1.1,1.1,0,0,0-.829-1.215l-5.875-1.419a.657.657,0,0,1-.373-.248l-3.421-4.63A2.543,2.543,0,0,0,856,133.383H845.9a2.94,2.94,0,0,0-2.024.808l-5.485,5.21a2.21,2.21,0,0,0-.685,1.708c.07,1.446.2,4.1.274,5.7a1.384,1.384,0,0,0,1.382,1.318h.8a4.756,4.756,0,0,1-.067-.793h0a4.757,4.757,0,0,1,4.757-4.757h0a4.757,4.757,0,0,1,4.757,4.757h0a4.743,4.743,0,0,1-.067.793h5.532a4.768,4.768,0,0,1-.066-.793h0a4.757,4.757,0,0,1,4.757-4.757h0a4.757,4.757,0,0,1,4.757,4.757h0a4.719,4.719,0,0,1-.063.8Z" transform="translate(-837.7 -133.383)" fill="none" stroke="#76b740" stroke-linejoin="round" stroke-width="1.2"/><path d="M870.98,141.834a.229.229,0,0,0,.2.341h13.8a.228.228,0,0,0,.192-.352l-2.506-3.91a.572.572,0,0,0-.481-.263h-8.526a.571.571,0,0,0-.5.292Z" transform="translate(-863.746 -136.441)" fill="#76b740" fillRule="evenodd"/><line y1="4.788" transform="translate(11.568 1.135)" fill="none" stroke="#fff" stroke-linejoin="round" stroke-width="1.5"/><rect width="7.047" height="7.047" rx="3.523" transform="translate(3.623 10.436)" fill="#76b740"/></g></svg>